<svg id="Layer_1" data-name="Layer 1" xmlns="http://www.w3.org/2000/svg" viewBox="0 0 19.33 19.37"><defs><style>.cls-1{fill:#995d35;}</style></defs><path id="coffee-bar" class="cls-1" d="M267.09,313.43a1.39,1.39,0,0,1,1.06-.43,1.42,1.42,0,0,1,1.07.43,1.49,1.49,0,0,1-1.07,2.55,1.42,1.42,0,0,1-1.06-.42,1.59,1.59,0,0,1,0-2.13M260,327.67a.74.74,0,0,0,.67.39h12.19a.62.62,0,0,0,.38-.12,1.5,1.5,0,0,0,.27-.29,1.12,1.12,0,0,0,.16-.37,1.29,1.29,0,0,0,.06-.37,1.06,1.06,0,0,0-.07-.38,1.33,1.33,0,0,0-.18-.38,1,1,0,0,0-.27-.3.64.64,0,0,0-.4-.13H267.9v-6.66l8.38-10.37H257l8.49,10.3v6.73h-4.81a.6.6,0,0,0-.38.13.92.92,0,0,0-.29.3,1.38,1.38,0,0,0-.18.39,1.4,1.4,0,0,0-.07.37,1.37,1.37,0,0,0,.25.76" transform="translate(-256.96 -308.69)"/></svg>