<svg id="Layer_1" data-name="Layer 1" xmlns="http://www.w3.org/2000/svg" viewBox="0 0 26.23 11.91"><defs><style>.cls-1{fill:#995d35;}.cls-2{fill:none;stroke:#fff;stroke-width:0.57px;}</style></defs><rect class="cls-1" y="5.47" width="26.23" height="1.14"/><polygon class="cls-1" points="24.97 3.11 24.97 8.8 24.97 9.09 24.68 9.09 23.06 9.09 22.77 9.09 22.77 8.8 22.77 3.11 22.77 2.83 23.06 2.83 24.68 2.83 24.97 2.83 24.97 3.11"/><polygon class="cls-2" points="24.97 3.11 24.97 8.8 24.97 9.09 24.68 9.09 23.06 9.09 22.77 9.09 22.77 8.8 22.77 3.11 22.77 2.83 23.06 2.83 24.68 2.83 24.97 2.83 24.97 3.11"/><polygon class="cls-1" points="0.94 8.8 0.94 3.11 0.94 2.83 1.23 2.83 2.86 2.83 3.14 2.83 3.14 3.11 3.14 8.8 3.14 9.09 2.86 9.09 1.23 9.09 0.94 9.09 0.94 8.8"/><polygon class="cls-2" points="0.94 8.8 0.94 3.11 0.94 2.83 1.23 2.83 2.86 2.83 3.14 2.83 3.14 3.11 3.14 8.8 3.14 9.09 2.86 9.09 1.23 9.09 0.94 9.09 0.94 8.8"/><polygon class="cls-1" points="22.94 1.9 22.94 10.02 22.94 10.31 22.65 10.31 21.02 10.31 20.74 10.31 20.74 10.02 20.74 1.9 20.74 1.61 21.02 1.61 22.65 1.61 22.94 1.61 22.94 1.9"/><polygon class="cls-2" points="22.94 1.9 22.94 10.02 22.94 10.31 22.65 10.31 21.02 10.31 20.74 10.31 20.74 10.02 20.74 1.9 20.74 1.61 21.02 1.61 22.65 1.61 22.94 1.61 22.94 1.9"/><polygon class="cls-1" points="2.97 10.02 2.97 1.9 2.97 1.61 3.26 1.61 4.89 1.61 5.17 1.61 5.17 1.9 5.17 10.02 5.17 10.31 4.89 10.31 3.26 10.31 2.97 10.31 2.97 10.02"/><polyline class="cls-2" points="2.97 10.02 2.97 1.9 2.97 1.61 3.26 1.61 4.89 1.61 5.17 1.61 5.17 1.9 5.17 10.02 5.17 10.31 4.89 10.31 3.26 10.31 2.97 10.31 2.97 10.02"/><polygon class="cls-1" points="20.8 0.57 20.8 11.34 20.8 11.63 20.52 11.63 18.89 11.63 18.61 11.63 18.61 11.34 18.61 0.57 18.61 0.29 18.89 0.29 20.52 0.29 20.8 0.29 20.8 0.57"/><polygon class="cls-2" points="20.8 0.57 20.8 11.34 20.8 11.63 20.52 11.63 18.89 11.63 18.61 11.63 18.61 11.34 18.61 0.57 18.61 0.29 18.89 0.29 20.52 0.29 20.8 0.29 20.8 0.57"/><polygon class="cls-1" points="5.11 11.34 5.11 0.57 5.11 0.29 5.39 0.29 7.02 0.29 7.31 0.29 7.31 0.57 7.31 11.34 7.31 11.63 7.02 11.63 5.39 11.63 5.11 11.63 5.11 11.34"/><polygon class="cls-2" points="5.11 11.34 5.11 0.57 5.11 0.29 5.39 0.29 7.02 0.29 7.31 0.29 7.31 0.57 7.31 11.34 7.31 11.63 7.02 11.63 5.39 11.63 5.11 11.63 5.11 11.34"/></svg>