<svg id="Layer_1" data-name="Layer 1" xmlns="http://www.w3.org/2000/svg" viewBox="0 0 23.28 19.36"><defs><style>.cls-1{fill:#cfaa8e;}.cls-2{fill:#a06032;}</style></defs><path class="cls-1" d="M286.07,320.37a8.32,8.32,0,0,0,1.76,4c1.72,2.43,3.62,5.43,2.86,6.9s-1.95,2.43-4.62,2.43-4.76-1.28-4.76-2.85.21-2.92,3.28-6.81a5.77,5.77,0,0,0,1.48-3.71" transform="translate(-274.36 -320.33)"/><path class="cls-2" d="M274.36,333.77c0-1.58,1.21-3,3.19-4.07-1.55.93-2.47,2.14-2.47,3.45,0,3,4.89,5.45,10.92,5.45s10.92-2.44,10.92-5.45c0-1.31-.92-2.52-2.47-3.45,2,1.06,3.19,2.49,3.19,4.07,0,3.27-5.21,5.92-11.64,5.92s-11.64-2.65-11.64-5.92" transform="translate(-274.36 -320.33)"/><path class="cls-2" d="M291.6,333.73c-2.4,3-8.76,3-11.21,0C284,335.79,289,335.45,291.6,333.73Z" transform="translate(-274.36 -320.33)"/></svg>