<svg id="Layer_1" data-name="Layer 1" xmlns="http://www.w3.org/2000/svg" viewBox="0 0 21.37 22.55"><defs><style>.cls-1{fill:#995d35;}</style></defs><g id="meeting_room" data-name="meeting room"><path class="cls-1" d="M205.39,314.74a2,2,0,1,0-2.16-2,2.09,2.09,0,0,0,2.16,2" transform="translate(-202.2 -310.66)"/><path class="cls-1" d="M205.39,326.52a2,2,0,1,0-2.16-2,2.09,2.09,0,0,0,2.16,2" transform="translate(-202.2 -310.66)"/><path class="cls-1" d="M213,314.74a2,2,0,1,0-2.16-2,2.1,2.1,0,0,0,2.16,2" transform="translate(-202.2 -310.66)"/><path class="cls-1" d="M213,326.52a2,2,0,1,0-2.16-2,2.1,2.1,0,0,0,2.16,2" transform="translate(-202.2 -310.66)"/><path class="cls-1" d="M220.38,314.74a2,2,0,1,0-2.16-2,2.09,2.09,0,0,0,2.16,2" transform="translate(-202.2 -310.66)"/><path class="cls-1" d="M220.38,326.52a2,2,0,1,0-2.16-2,2.09,2.09,0,0,0,2.16,2" transform="translate(-202.2 -310.66)"/><path class="cls-1" d="M204.68,315.33a2.39,2.39,0,0,0-2.48,2.36v3.73h6.38v-3.73a2.35,2.35,0,0,0-2.49-2.36Z" transform="translate(-202.2 -310.66)"/><path class="cls-1" d="M204.68,327.11a2.39,2.39,0,0,0-2.48,2.36v3.73h6.38v-3.73a2.35,2.35,0,0,0-2.49-2.36Z" transform="translate(-202.2 -310.66)"/><path class="cls-1" d="M212.25,315.33s-2.49,0-2.49,2.36v3.73h6.38v-3.73a2.35,2.35,0,0,0-2.48-2.36Z" transform="translate(-202.2 -310.66)"/><path class="cls-1" d="M212.25,327.11s-2.49,0-2.49,2.36v3.73h6.38v-3.73a2.35,2.35,0,0,0-2.48-2.36Z" transform="translate(-202.2 -310.66)"/><path class="cls-1" d="M219.67,315.33a2.39,2.39,0,0,0-2.48,2.36v3.73h6.38v-3.73a2.35,2.35,0,0,0-2.49-2.36Z" transform="translate(-202.2 -310.66)"/><path class="cls-1" d="M219.67,327.11a2.39,2.39,0,0,0-2.48,2.36v3.73h6.38v-3.73a2.35,2.35,0,0,0-2.49-2.36Z" transform="translate(-202.2 -310.66)"/></g></svg>