<svg id="Layer_1" data-name="Layer 1" xmlns="http://www.w3.org/2000/svg" viewBox="0 0 16.82 22.55"><defs><style>.cls-1{fill:#995d35;}</style></defs><path id="restaurant" class="cls-1" d="M293,339.07a.82.82,0,0,0,.38.69,1.42,1.42,0,0,0,.76.26,1.15,1.15,0,0,0,.83-.33,1.11,1.11,0,0,0,.34-.84V325a4.38,4.38,0,0,0,1.15-1.63,5.14,5.14,0,0,0,.37-2,6.14,6.14,0,0,0-.15-1.27,4.78,4.78,0,0,0-.49-1.29,3.52,3.52,0,0,0-.83-1,1.86,1.86,0,0,0-1.19-.4,2.09,2.09,0,0,0-1.28.38,3.16,3.16,0,0,0-.86,1,4.6,4.6,0,0,0-.49,1.27,6.09,6.09,0,0,0-.15,1.29,7.63,7.63,0,0,0,.08,1,5.37,5.37,0,0,0,.26,1.05,4,4,0,0,0,.5.94,2.44,2.44,0,0,0,.77.69Z" transform="translate(-280 -317.48)"/></svg>