<svg id="Layer_1" data-name="Layer 1" xmlns="http://www.w3.org/2000/svg" viewBox="0 0 22.43 31.18"><defs><style>.cls-1{fill:#c59f85;}.cls-2{fill:#995d35;}</style></defs><g id="room-service"><rect class="cls-1" y="7.3" width="8.22" height="0.73"/><path class="cls-2" d="M95.61,192.69l-2.26-8.34c0-.36-1-3.17-2.83-3.17H84.28c-1.55.42-2.34,2.77-2.34,3.09l-.64,2.34-3.25-3a.91.91,0,0,0-.19-.15.81.81,0,0,0-.58-.21,1.27,1.27,0,0,0-.59.18,1.2,1.2,0,0,0-.47.58.82.82,0,0,0,.06.77L80.65,189h0c.07.05,1.46,1,2.47-.79l0,0,.9-3,.34,0,.12,0v20.07a2.58,2.58,0,0,0,.09.32,1.22,1.22,0,0,0,.49.73,1.41,1.41,0,0,0,.85.27,1.49,1.49,0,0,0,1-.39,1.23,1.23,0,0,0,.46-1v-11.7h.48v11.82a.55.55,0,0,0,.09.26,1.49,1.49,0,0,0,.52.72,1.42,1.42,0,0,0,.85.28,1.61,1.61,0,0,0,.77-.2,1.26,1.26,0,0,0,.54-.65s.07-.17.15-.41V185.26h.47l2.27,7.52a.72.72,0,0,0,.09.22.84.84,0,0,0,.38.49,1.33,1.33,0,0,0,.6.14,1.15,1.15,0,0,0,.7-.25.81.81,0,0,0,.34-.69" transform="translate(-73.19 -175.47)"/><path class="cls-1" d="M80.44,182.9a2.29,2.29,0,0,0,0-.25,3.17,3.17,0,1,0-6.33,0,2.29,2.29,0,0,0,0,.25Z" transform="translate(-73.19 -175.47)"/><path class="cls-2" d="M89.37,179.84a2.6,2.6,0,0,0,.7-1.83,2.57,2.57,0,0,0-.42-1.43,2.51,2.51,0,0,0-1.07-1,1,1,0,0,0-.28-.11.87.87,0,0,0-.31-.05h-.75a.87.87,0,0,0-.31.05.91.91,0,0,0-.28.11,2.63,2.63,0,0,0-1.09,1,2.69,2.69,0,0,0,.31,3.26,2.34,2.34,0,0,0,1.76.75,2.24,2.24,0,0,0,1.74-.77" transform="translate(-73.19 -175.47)"/><path class="cls-1" d="M77.29,179.53a.37.37,0,1,0-.37-.37.37.37,0,0,0,.37.37" transform="translate(-73.19 -175.47)"/></g></svg>