<svg id="Layer_1" data-name="Layer 1" xmlns="http://www.w3.org/2000/svg" viewBox="0 0 23.41 17.01"><defs><style>.cls-1{fill:#a05f31;fill-rule:evenodd;}</style></defs><path class="cls-1" d="M484.26,419.08c2.22.83,4.53,1.3,6.79,2l-.76.1a9.66,9.66,0,0,0-2.89,1.15c-1,.55-2,1.13-3,1.65a8.9,8.9,0,0,1-7.07.46c.05-.1.09-.19.14-.27l5-9c.19-.34.38-.7.54-1.06a1.46,1.46,0,0,1,1.22-.9c2-.24,3.93-.5,5.89-.75a1.48,1.48,0,0,1,1.59,1.23,1.45,1.45,0,0,1-1.14,1.69c-.76.14-1.52.21-2.29.31l-2.71.36a.26.26,0,0,0-.17.11Z" transform="translate(-472.96 -412.44)"/><path class="cls-1" d="M496.37,424.66a5.07,5.07,0,0,0-2.15-1.1,7.82,7.82,0,0,0-6.21.79c-.92.56-1.84,1.11-2.78,1.62a9.65,9.65,0,0,1-4.29,1.19,5.93,5.93,0,0,1-4.15-1.5,7.85,7.85,0,0,1-1.59-1.83c.4.22.73.42,1.09.59a9,9,0,0,0,8.43-.17c1-.52,1.93-1.09,2.9-1.62a9,9,0,0,1,2.83-1.06,5.22,5.22,0,0,1,4.7,1.5,15.21,15.21,0,0,1,1.11,1.38A.84.84,0,0,1,496.37,424.66Z" transform="translate(-472.96 -412.44)"/><path class="cls-1" d="M476.21,421.9a3.24,3.24,0,1,1,3.23-3.22A3.24,3.24,0,0,1,476.21,421.9Z" transform="translate(-472.96 -412.44)"/><path class="cls-1" d="M475.93,426.25a9.4,9.4,0,0,0,3.57,1.39,8.09,8.09,0,0,0,4.94-.72c1.14-.55,2.24-1.21,3.37-1.82a8.14,8.14,0,0,1,3-1,4.92,4.92,0,0,1,3.53.9,6.31,6.31,0,0,1,1.75,1.92.48.48,0,0,1,.07.18,4.25,4.25,0,0,0-1.61-.92,7.38,7.38,0,0,0-6,.43c-.78.43-1.53.9-2.3,1.35a11.34,11.34,0,0,1-3.69,1.41,6.23,6.23,0,0,1-6.56-3Z" transform="translate(-472.96 -412.44)"/></svg>