<svg id="Layer_1" data-name="Layer 1" xmlns="http://www.w3.org/2000/svg" viewBox="0 0 22.68 14.08"><defs><style>.cls-1{fill:#c59f85;}</style></defs><path id="tea" class="cls-1" d="M210.07,508.57h.2a2.64,2.64,0,0,1,1,.18,2.12,2.12,0,0,1,.76.51,2.45,2.45,0,0,1,.49.79,2.63,2.63,0,0,1,.18,1,2.71,2.71,0,0,1-.2,1.06,2.14,2.14,0,0,1-.57.75,2.43,2.43,0,0,1-.86.45,3.51,3.51,0,0,1-1.05.15v-4.85ZM196.91,516a2,2,0,0,0,.15.73,2.51,2.51,0,0,0,.41.66,2.39,2.39,0,0,0,.61.49,1.44,1.44,0,0,0,.72.19h9.32a1.23,1.23,0,0,0,.46-.1,3.3,3.3,0,0,0,.42-.23,1.68,1.68,0,0,0,.56-.49,2.5,2.5,0,0,0,.3-.64,3.19,3.19,0,0,0,.13-.71c0-.26,0-.5,0-.74a5,5,0,0,0,1.66-.33A4.1,4.1,0,0,0,213,514a4.06,4.06,0,0,0,.91-1.3,4.11,4.11,0,0,0,.33-1.67,4.54,4.54,0,0,0-.5-2.06,3.39,3.39,0,0,0-1.45-1.5,6.56,6.56,0,0,0-.7-.36,2,2,0,0,0-.78-.17H196.91Z" transform="translate(-192.08 -506.89)"/></svg>