<svg width="21" height="21" viewBox="0 0 21 21" fill="none" xmlns="http://www.w3.org/2000/svg">
<path d="M19.8536 7.91366L13.858 7.0012L11.1778 1.31126C11.1046 1.15548 10.9841 1.02936 10.8354 0.952706C10.4623 0.759826 10.0089 0.920559 9.82232 1.31126L7.14213 7.0012L1.14652 7.91366C0.981218 7.93839 0.830088 8.01999 0.714379 8.14363C0.574493 8.29419 0.49741 8.49675 0.500066 8.7068C0.502723 8.91684 0.584903 9.11719 0.728547 9.26382L5.06645 13.6926L4.0416 19.9464C4.01757 20.0918 4.03294 20.2414 4.08598 20.3782C4.13901 20.515 4.22759 20.6335 4.34166 20.7203C4.45573 20.807 4.59074 20.8586 4.73137 20.8691C4.87199 20.8796 5.01262 20.8486 5.13729 20.7797L10.5 17.8272L15.8628 20.7797C16.0092 20.8613 16.1792 20.8885 16.3422 20.8588C16.7531 20.7846 17.0293 20.3766 16.9585 19.9464L15.9336 13.6926L20.2715 9.26382C20.3896 9.14265 20.4675 8.98439 20.4912 8.81129C20.5549 8.37855 20.2668 7.97796 19.8536 7.91366Z" fill="white"/>
</svg>